<?xml version="1.0" encoding="iso-8859-1"?>
<!-- Generator: Adobe Illustrator 19.0.0, SVG Export Plug-In . SVG Version: 6.00 Build 0)  -->
<svg version="1.1" id="Capa_1" xmlns="http://www.w3.org/2000/svg" xmlns:xlink="http://www.w3.org/1999/xlink" x="0px" y="0px"
	 viewBox="0 0 512 512" style="enable-background:new 0 0 512 512;" xml:space="preserve">
<g>
	<path style="fill:#4FBA6F;" d="M9.181,0H450.56c4.875,0,8.828,3.952,8.828,8.828v494.345c0,4.875-3.952,8.828-8.828,8.828H9.181
		c-4.875,0-8.828-3.952-8.828-8.828V8.828C0.353,3.952,4.306,0,9.181,0z"/>
	<path style="fill:#BDC3C7;" d="M511.647,109.992c0.005,3.634-0.26,7.263-0.794,10.858l-0.264,1.854H496.11
		c-0.692,0.087-1.356,0.328-1.942,0.706l-20.215-38.223h-1.235c1.778-0.062,3.279-1.343,3.619-3.09l6.092-28.69
		c0.233-1.112-0.024-2.27-0.706-3.178c2.553,1.89,4.971,3.955,7.238,6.179c1.059,1.059,2.119,2.119,3.178,3.266
		C504.712,73.413,511.673,91.368,511.647,109.992L511.647,109.992z"/>
	<path style="fill:#ECF0F1;" d="M510.588,122.703c-3.392,19.526-14.413,36.899-30.633,48.287h-0.088l-3.708-12.977l-0.088-0.353
		c-0.109-0.313-0.169-0.64-0.177-0.971c0.01-0.643,0.161-1.276,0.441-1.854l0.353-0.53l16.331-29.484l0.088-0.265
		c0.28-0.444,0.639-0.833,1.059-1.148c0.586-0.378,1.25-0.619,1.942-0.706H510.588z"/>
	<path style="fill:#2C2F38;" d="M494.168,123.41c-0.42,0.315-0.779,0.704-1.059,1.148l-0.088,0.265l-16.331,29.484l-0.353,0.53
		c-0.281,0.578-0.431,1.211-0.441,1.854l-42.284-1.677c-0.041-0.593-0.223-1.168-0.529-1.677l-16.067-28.955
		c-0.223-0.382-0.524-0.713-0.883-0.971l18.538-42.637l0.088-0.088c0.61,0.636,1.421,1.041,2.295,1.148l35.31,3.354h1.588
		L494.168,123.41z"/>
	<path style="fill:#ECF0F1;" d="M433.611,155.013c-0.012,1.203-0.563,2.336-1.501,3.09l-21.098,21.892
		c-14.609-5.387-27.149-15.24-35.84-28.16v-0.088l3.266-29.131c0.146-1.156,0.835-2.173,1.854-2.737
		c0.646-0.441,1.431-0.63,2.207-0.53l31.601,3.09c0.768,0.083,1.485,0.425,2.031,0.971c0.359,0.258,0.66,0.589,0.883,0.971
		l16.067,28.954C433.389,153.845,433.57,154.42,433.611,155.013z"/>
	<path style="fill:#BDC3C7;" d="M434.759,80.684l-0.088,0.088l-18.538,42.637c-0.546-0.546-1.263-0.888-2.031-0.971l-31.602-3.09
		c-0.776-0.1-1.561,0.088-2.207,0.53l-12.007-39.194c5.114-12.08,13.338-22.588,23.835-30.455c2.897-2.187,5.968-4.136,9.181-5.826
		l23.305,6.709c-0.279,0.836-0.248,1.745,0.088,2.56l9.181,25.6C434.062,79.802,434.364,80.284,434.759,80.684z"/>
	<path style="fill:#ECF0F1;" d="M482.428,53.407l-6.092,28.69c-0.34,1.747-1.84,3.028-3.619,3.09h-0.353l-35.31-3.354
		c-1.456-0.19-2.683-1.178-3.178-2.56l-9.181-25.6c-0.336-0.815-0.368-1.724-0.088-2.56h0.088c0.262-0.995,0.936-1.83,1.854-2.295
		l23.57-12.27v-0.088c0.53,0.088,0.971,0.177,1.5,0.265c1.06,0.265,2.12,0.441,3.179,0.794c9.669,2.334,18.767,6.598,26.748,12.535
		h0.088c0,0.024,0.009,0.046,0.025,0.063c0.017,0.017,0.039,0.026,0.063,0.025v0.088C482.404,51.137,482.661,52.295,482.428,53.407z
		"/>
	<path style="fill:#BDC3C7;" d="M479.867,170.991v0.088c-12.544,8.873-27.537,13.624-42.902,13.594
		c-7.324-0.016-14.608-1.086-21.628-3.178c-1.149-0.353-2.295-0.794-3.444-1.148c-0.308-0.079-0.604-0.198-0.881-0.353
		l21.097-21.892c0.938-0.753,1.488-1.887,1.501-3.09l42.283,1.677c0.008,0.331,0.067,0.659,0.177,0.971l0.088,0.353L479.867,170.991
		z"/>
	<g>
		<path style="fill:#2C2F38;" d="M450.119,36.458v0.088l-23.57,12.27c-0.918,0.465-1.593,1.3-1.854,2.295h-0.088l-23.305-6.709
			c10.926-6.003,23.198-9.132,35.664-9.092C441.376,35.286,445.779,35.671,450.119,36.458L450.119,36.458z"/>
		<path style="fill:#2C2F38;" d="M380.293,119.879c-1.02,0.564-1.709,1.581-1.854,2.737l-3.266,29.131
			c-1.024-1.417-1.967-2.891-2.825-4.414c-0.706-1.059-1.235-2.119-1.854-3.266c-9.123-17.819-10.713-38.554-4.414-57.556
			c0.629-1.981,1.366-3.926,2.207-5.826L380.293,119.879z"/>
	</g>
	<g>
		<path style="fill:#ECF0F1;" d="M284.955,0v52.966c0.012,1.174-0.45,2.304-1.28,3.134c-0.83,0.83-1.96,1.292-3.134,1.28H179.2
			c-1.174,0.012-2.304-0.45-3.134-1.28c-0.83-0.83-1.292-1.96-1.28-3.134V0h8.828v48.552h92.513V0H284.955z"/>
		<path style="fill:#ECF0F1;" d="M340.215,0v88.276c0.012,1.174-0.45,2.304-1.28,3.134c-0.83,0.83-1.96,1.292-3.134,1.28H123.94
			c-1.174,0.012-2.304-0.45-3.134-1.28c-0.83-0.83-1.292-1.96-1.28-3.134V0h8.828v83.862h203.034V0H340.215z"/>
		<path style="fill:#ECF0F1;" d="M229.871,145.655c-34.267,0.376-64.201-23.091-72.017-56.457c-0.509-2.383,1.009-4.728,3.392-5.237
			c2.383-0.509,4.728,1.009,5.237,3.392c7.28,29.079,33.412,49.474,63.388,49.474c29.976,0,56.108-20.396,63.388-49.474
			c0.509-2.383,2.854-3.902,5.237-3.392c2.383,0.509,3.902,2.854,3.392,5.237C294.072,122.564,264.138,146.031,229.871,145.655
			L229.871,145.655z"/>
		<path style="fill:#ECF0F1;" d="M284.955,459.034V512h-8.828v-48.552h-92.513V512h-8.828v-52.966
			c-0.012-1.174,0.45-2.304,1.28-3.134c0.83-0.83,1.96-1.292,3.134-1.28h101.341c1.174-0.012,2.304,0.45,3.134,1.28
			C284.505,456.731,284.966,457.86,284.955,459.034L284.955,459.034z"/>
		<path style="fill:#ECF0F1;" d="M340.215,423.724V512h-8.828v-83.862H128.353V512h-8.828v-88.276
			c-0.012-1.174,0.45-2.304,1.28-3.134c0.83-0.83,1.96-1.292,3.134-1.28h211.862c1.174-0.012,2.304,0.45,3.134,1.28
			C339.766,421.421,340.227,422.55,340.215,423.724z"/>
		<path style="fill:#ECF0F1;" d="M297.569,428.138c-2.081-0.001-3.877-1.456-4.31-3.491c-7.28-29.078-33.412-49.474-63.388-49.474
			c-29.976,0-56.108,20.396-63.388,49.474c-0.33,1.541-1.456,2.79-2.956,3.275c-1.5,0.485-3.144,0.134-4.315-0.922
			c-1.17-1.056-1.688-2.656-1.358-4.198c8.15-33.152,37.879-56.457,72.017-56.457s63.867,23.305,72.017,56.457
			c0.246,1.144,0.026,2.34-0.61,3.322c-0.636,0.982-1.637,1.671-2.782,1.915C298.191,428.105,297.881,428.139,297.569,428.138
			L297.569,428.138z"/>
		<rect x="0.353" y="247.172" style="fill:#ECF0F1;" width="459.034" height="17.655"/>
		<path style="fill:#ECF0F1;" d="M304.375,247.172c-4.469-37.76-36.481-66.207-74.505-66.207s-70.036,28.446-74.505,66.207
			c-0.706,5.864-0.706,11.791,0,17.655c4.469,37.76,36.481,66.207,74.505,66.207s70.036-28.446,74.505-66.207
			C305.082,258.964,305.082,253.036,304.375,247.172L304.375,247.172z M229.871,322.207c-33.143-0.014-61.169-24.532-65.589-57.379
			c-0.824-5.856-0.824-11.799,0-17.655c4.406-32.854,32.441-57.38,65.589-57.38s61.183,24.526,65.589,57.38
			c0.824,5.856,0.824,11.799,0,17.655C291.04,297.674,263.014,322.193,229.871,322.207L229.871,322.207z"/>
	</g>
</g>
<g>
</g>
<g>
</g>
<g>
</g>
<g>
</g>
<g>
</g>
<g>
</g>
<g>
</g>
<g>
</g>
<g>
</g>
<g>
</g>
<g>
</g>
<g>
</g>
<g>
</g>
<g>
</g>
<g>
</g>
</svg>
