<?xml version="1.0" encoding="iso-8859-1"?>
<!-- Generator: Adobe Illustrator 22.1.0, SVG Export Plug-In . SVG Version: 6.00 Build 0)  -->
<svg xmlns="http://www.w3.org/2000/svg" xmlns:xlink="http://www.w3.org/1999/xlink" version="1.1" id="Layer_3" x="0px" y="0px" viewBox="0 0 64 64" style="enable-background:new 0 0 64 64;" xml:space="preserve" width="512" height="512">
<path d="M62,29h-3V2c0-0.552-0.447-1-1-1H39H25H6C5.447,1,5,1.448,5,2v27H2c-0.553,0-1,0.448-1,1v4c0,0.552,0.447,1,1,1h3v27  c0,0.552,0.447,1,1,1h19h14h19c0.553,0,1-0.448,1-1V35h3c0.553,0,1-0.448,1-1v-4C63,29.448,62.553,29,62,29z M57,34v3.91  c-2.507-0.423-4.486-2.403-4.91-4.91H57V34z M57,31h-4.91c0.423-2.507,2.403-4.486,4.91-4.91V30V31z M38,3v6H26V3H38z M24,3v7  c0,0.552,0.447,1,1,1h14c0.553,0,1-0.448,1-1V3h17v21.069c-3.612,0.453-6.477,3.319-6.931,6.931h-6.12C43.438,24.851,38.28,20,32,20  s-11.438,4.851-11.949,11h-6.12c-0.453-3.612-3.319-6.477-6.931-6.931V3H24z M27.101,33c0.465,2.279,2.484,4,4.899,4  s4.434-1.721,4.899-4h5.05c-0.504,5.046-4.773,9-9.949,9s-9.446-3.954-9.949-9H27.101z M34.816,33c-0.414,1.161-1.514,2-2.816,2  s-2.402-0.839-2.816-2H34.816z M29.184,31c0.414-1.161,1.514-2,2.816-2s2.402,0.839,2.816,2H29.184z M36.899,31  c-0.465-2.279-2.484-4-4.899-4s-4.434,1.721-4.899,4h-5.05c0.504-5.046,4.773-9,9.949-9s9.446,3.954,9.949,9H36.899z M7,34v-1h4.91  c-0.423,2.507-2.403,4.486-4.91,4.91V34z M7,31v-1v-3.91c2.507,0.423,4.486,2.403,4.91,4.91H7z M3,33v-2h2v2H3z M26,61v-6h12v6H26z   M40,61v-7c0-0.552-0.447-1-1-1H25c-0.553,0-1,0.448-1,1v7H7V39.931c3.612-0.453,6.477-3.319,6.931-6.931h6.12  C20.562,39.149,25.72,44,32,44s11.438-4.851,11.949-11h6.12c0.453,3.612,3.319,6.477,6.931,6.931V61H40z M61,33h-2v-2h2V33z"/>
</svg>
